{"asset":{"version":"2.0","generator":"THREE.GLTFExporter r179"},"scenes":[{"nodes":[0]}],"scene":0,"nodes":[{"children":[1,2,3,4,5,6,7,8,9,10,11,12,13,14,15,16,17]},{"matrix":[1,0,0,0,0,1,0,0,0,0,1,0,0,0.9,0,1],"mesh":0},{"matrix":[1,0,0,0,0,1,0,0,0,0,1,0,0,1.5,0,1],"mesh":1},{"matrix":[1,0,0,0,0,1,0,0,0,0,1,0,0,1.56,0,1],"mesh":2},{"matrix":[1,0,0,0,0,1,0,0,0,0,1,0,-0.06,1.5,0.16,1],"mesh":3},{"matrix":[1,0,0,0,0,1,0,0,0,0,1,0,0.06,1.5,0.16,1],"mesh":4},{"matrix":[0.8660254037844387,-0.49999999999999994,0,0,0.49999999999999994,0.8660254037844387,0,0,0,0,1,0,-0.5,1.2,0,1],"mesh":5},{"matrix":[0.8660254037844387,-0.49999999999999994,0,0,0.49999999999999994,0.8660254037844387,0,0,0,0,1,0,-0.8,0.95,0,1],"mesh":6},{"matrix":[0.8660254037844387,0.49999999999999994,0,0,-0.49999999999999994,0.8660254037844387,0,0,0,0,1,0,0.5,1.2,0,1],"mesh":7},{"matrix":[0.8660254037844387,0.49999999999999994,0,0,-0.49999999999999994,0.8660254037844387,0,0,0,0,1,0,0.8,0.95,0,1],"mesh":8},{"matrix":[1,0,0,0,0,1,0,0,0,0,1,0,-0.15,0.45,0,1],"mesh":9},{"matrix":[1,0,0,0,0,1,0,0,0,0,1,0,-0.15,0,0,1],"mesh":10},{"matrix":[1,0,0,0,0,1,0,0,0,0,1,0,0.15,0.45,0,1],"mesh":11},{"matrix":[1,0,0,0,0,1,0,0,0,0,1,0,0.15,0,0,1],"mesh":12},{"matrix":[1,0,0,0,0,1,0,0,0,0,1,0,-0.15,-0.25,0,1],"mesh":13},{"matrix":[1,0,0,0,0,1,0,0,0,0,1,0,0.15,-0.25,0,1],"mesh":14},{"matrix":[1,0,0,0,0,1,0,0,0,0,1,0,-0.15,-0.45,0.1,1],"mesh":15},{"matrix":[1,0,0,0,0,1,0,0,0,0,1,0,0.15,-0.45,0.1,1],"mesh":16}],"bufferViews":[{"buffer":0,"byteOffset":0,"byteLength":8292,"target":34962,"byteStride":12},{"buffer":0,"byteOffset":8292,"byteLength":8292,"target":34962,"byteStride":12},{"buffer":0,"byteOffset":16584,"byteLength":5528,"target":34962,"byteStride":8},{"buffer":0,"byteOffset":22112,"byteLength":6528,"target":34963},{"buffer":0,"byteOffset":28640,"byteLength":13068,"target":34962,"byteStride":12},{"buffer":0,"byteOffset":41708,"byteLength":13068,"target":34962,"byteStride":12},{"buffer":0,"byteOffset":54776,"byteLength":8712,"target":34962,"byteStride":8},{"buffer":0,"byteOffset":63488,"byteLength":11904,"target":34963},{"buffer":0,"byteOffset":75392,"byteLength":13068,"target":34962,"byteStride":12},{"buffer":0,"byteOffset":88460,"byteLength":13068,"target":34962,"byteStride":12},{"buffer":0,"byteOffset":101528,"byteLength":8712,"target":34962,"byteStride":8},{"buffer":0,"byteOffset":110240,"byteLength":12096,"target":34963},{"buffer":0,"byteOffset":122336,"byteLength":3468,"target":34962,"byteStride":12},{"buffer":0,"byteOffset":125804,"byteLength":3468,"target":34962,"byteStride":12},{"buffer":0,"byteOffset":129272,"byteLength":2312,"target":34962,"byteStride":8},{"buffer":0,"byteOffset":131584,"byteLength":2880,"target":34963},{"buffer":0,"byteOffset":134464,"byteLength":3468,"target":34962,"byteStride":12},{"buffer":0,"byteOffset":137932,"byteLength":3468,"target":34962,"byteStride":12},{"buffer":0,"byteOffset":141400,"byteLength":2312,"target":34962,"byteStride":8},{"buffer":0,"byteOffset":143712,"byteLength":2880,"target":34963},{"buffer":0,"byteOffset":146592,"byteLength":1200,"target":34962,"byteStride":12},{"buffer":0,"byteOffset":147792,"byteLength":1200,"target":34962,"byteStride":12},{"buffer":0,"byteOffset":148992,"byteLength":800,"target":34962,"byteStride":8},{"buffer":0,"byteOffset":149792,"byteLength":384,"target":34963},{"buffer":0,"byteOffset":150176,"byteLength":1200,"target":34962,"byteStride":12},{"buffer":0,"byteOffset":151376,"byteLength":1200,"target":34962,"byteStride":12},{"buffer":0,"byteOffset":152576,"byteLength":800,"target":34962,"byteStride":8},{"buffer":0,"byteOffset":153376,"byteLength":384,"target":34963},{"buffer":0,"byteOffset":153760,"byteLength":1200,"target":34962,"byteStride":12},{"buffer":0,"byteOffset":154960,"byteLength":1200,"target":34962,"byteStride":12},{"buffer":0,"byteOffset":156160,"byteLength":800,"target":34962,"byteStride":8},{"buffer":0,"byteOffset":156960,"byteLength":384,"target":34963},{"buffer":0,"byteOffset":157344,"byteLength":1200,"target":34962,"byteStride":12},{"buffer":0,"byteOffset":158544,"byteLength":1200,"target":34962,"byteStride":12},{"buffer":0,"byteOffset":159744,"byteLength":800,"target":34962,"byteStride":8},{"buffer":0,"byteOffset":160544,"byteLength":384,"target":34963},{"buffer":0,"byteOffset":160928,"byteLength":1200,"target":34962,"byteStride":12},{"buffer":0,"byteOffset":162128,"byteLength":1200,"target":34962,"byteStride":12},{"buffer":0,"byteOffset":163328,"byteLength":800,"target":34962,"byteStride":8},{"buffer":0,"byteOffset":164128,"byteLength":384,"target":34963},{"buffer":0,"byteOffset":164512,"byteLength":1200,"target":34962,"byteStride":12},{"buffer":0,"byteOffset":165712,"byteLength":1200,"target":34962,"byteStride":12},{"buffer":0,"byteOffset":166912,"byteLength":800,"target":34962,"byteStride":8},{"buffer":0,"byteOffset":167712,"byteLength":384,"target":34963},{"buffer":0,"byteOffset":168096,"byteLength":1200,"target":34962,"byteStride":12},{"buffer":0,"byteOffset":169296,"byteLength":1200,"target":34962,"byteStride":12},{"buffer":0,"byteOffset":170496,"byteLength":800,"target":34962,"byteStride":8},{"buffer":0,"byteOffset":171296,"byteLength":384,"target":34963},{"buffer":0,"byteOffset":171680,"byteLength":1200,"target":34962,"byteStride":12},{"buffer":0,"byteOffset":172880,"byteLength":1200,"target":34962,"byteStride":12},{"buffer":0,"byteOffset":174080,"byteLength":800,"target":34962,"byteStride":8},{"buffer":0,"byteOffset":174880,"byteLength":384,"target":34963},{"buffer":0,"byteOffset":175264,"byteLength":1200,"target":34962,"byteStride":12},{"buffer":0,"byteOffset":176464,"byteLength":1200,"target":34962,"byteStride":12},{"buffer":0,"byteOffset":177664,"byteLength":800,"target":34962,"byteStride":8},{"buffer":0,"byteOffset":178464,"byteLength":384,"target":34963},{"buffer":0,"byteOffset":178848,"byteLength":1200,"target":34962,"byteStride":12},{"buffer":0,"byteOffset":180048,"byteLength":1200,"target":34962,"byteStride":12},{"buffer":0,"byteOffset":181248,"byteLength":800,"target":34962,"byteStride":8},{"buffer":0,"byteOffset":182048,"byteLength":384,"target":34963},{"buffer":0,"byteOffset":182432,"byteLength":288,"target":34962,"byteStride":12},{"buffer":0,"byteOffset":182720,"byteLength":288,"target":34962,"byteStride":12},{"buffer":0,"byteOffset":183008,"byteLength":192,"target":34962,"byteStride":8},{"buffer":0,"byteOffset":183200,"byteLength":72,"target":34963},{"buffer":0,"byteOffset":183272,"byteLength":288,"target":34962,"byteStride":12},{"buffer":0,"byteOffset":183560,"byteLength":288,"target":34962,"byteStride":12},{"buffer":0,"byteOffset":183848,"byteLength":192,"target":34962,"byteStride":8},{"buffer":0,"byteOffset":184040,"byteLength":72,"target":34963}],"buffers":[{"byteLength":184112}],"accessors":[{"bufferView":0,"componentType":5126,"count":691,"max":[0.36399999260902405,0.4000000059604645,0.2240000069141388],"min":[-0.36399999260902405,-0.4000000059604645,-0.2240000069141388],"type":"VEC3"},{"bufferView":1,"componentType":5126,"count":691,"max":[0.9978941679000854,1,0.9992009401321411],"min":[-0.9978941679000854,-1,-0.9992009401321411],"type":"VEC3"},{"bufferView":2,"componentType":5126,"count":691,"max":[1,1],"min":[0,0],"type":"VEC2"},{"bufferView":3,"componentType":5123,"count":3264,"max":[690],"min":[0],"type":"SCALAR"},{"bufferView":4,"componentType":5126,"count":1089,"max":[0.18000000715255737,0.18000000715255737,0.18000000715255737],"min":[-0.18000000715255737,-0.18000000715255737,-0.18000000715255737],"type":"VEC3"},{"bufferView":5,"componentType":5126,"count":1089,"max":[1,1,1],"min":[-1,-1,-1],"type":"VEC3"},{"bufferView":6,"componentType":5126,"count":1089,"max":[1.015625,1],"min":[-0.015625,0],"type":"VEC2"},{"bufferView":7,"componentType":5123,"count":5952,"max":[1088],"min":[0],"type":"SCALAR"},{"bufferView":8,"componentType":5126,"count":1089,"max":[0.1899999976158142,0.1899999976158142,0.1899999976158142],"min":[-0.1899999976158142,1.163414476868685e-17,-0.1899999976158142],"type":"VEC3"},{"bufferView":9,"componentType":5126,"count":1089,"max":[1,1,1],"min":[-1,6.123234262925839e-17,-1],"type":"VEC3"},{"bufferView":10,"componentType":5126,"count":1089,"max":[1.015625,1],"min":[0,0],"type":"VEC2"},{"bufferView":11,"componentType":5123,"count":6048,"max":[1088],"min":[0],"type":"SCALAR"},{"bufferView":12,"componentType":5126,"count":289,"max":[0.029999999329447746,0.029999999329447746,0.029999999329447746],"min":[-0.029999999329447746,-0.029999999329447746,-0.029999999329447746],"type":"VEC3"},{"bufferView":13,"componentType":5126,"count":289,"max":[1,1,1],"min":[-1,-1,-1],"type":"VEC3"},{"bufferView":14,"componentType":5126,"count":289,"max":[1.03125,1],"min":[-0.03125,0],"type":"VEC2"},{"bufferView":15,"componentType":5123,"count":1440,"max":[288],"min":[0],"type":"SCALAR"},{"bufferView":16,"componentType":5126,"count":289,"max":[0.029999999329447746,0.029999999329447746,0.029999999329447746],"min":[-0.029999999329447746,-0.029999999329447746,-0.029999999329447746],"type":"VEC3"},{"bufferView":17,"componentType":5126,"count":289,"max":[1,1,1],"min":[-1,-1,-1],"type":"VEC3"},{"bufferView":18,"componentType":5126,"count":289,"max":[1.03125,1],"min":[-0.03125,0],"type":"VEC2"},{"bufferView":19,"componentType":5123,"count":1440,"max":[288],"min":[0],"type":"SCALAR"},{"bufferView":20,"componentType":5126,"count":100,"max":[0.09000000357627869,0.25,0.09000000357627869],"min":[-0.09000000357627869,-0.25,-0.09000000357627869],"type":"VEC3"},{"bufferView":21,"componentType":5126,"count":100,"max":[1,1,1],"min":[-1,-1,-1],"type":"VEC3"},{"bufferView":22,"componentType":5126,"count":100,"max":[1,1],"min":[0,0],"type":"VEC2"},{"bufferView":23,"componentType":5123,"count":192,"max":[99],"min":[0],"type":"SCALAR"},{"bufferView":24,"componentType":5126,"count":100,"max":[0.07999999821186066,0.22499999403953552,0.07999999821186066],"min":[-0.07999999821186066,-0.22499999403953552,-0.07999999821186066],"type":"VEC3"},{"bufferView":25,"componentType":5126,"count":100,"max":[1,1,1],"min":[-1,-1,-1],"type":"VEC3"},{"bufferView":26,"componentType":5126,"count":100,"max":[1,1],"min":[0,0],"type":"VEC2"},{"bufferView":27,"componentType":5123,"count":192,"max":[99],"min":[0],"type":"SCALAR"},{"bufferView":28,"componentType":5126,"count":100,"max":[0.09000000357627869,0.25,0.09000000357627869],"min":[-0.09000000357627869,-0.25,-0.09000000357627869],"type":"VEC3"},{"bufferView":29,"componentType":5126,"count":100,"max":[1,1,1],"min":[-1,-1,-1],"type":"VEC3"},{"bufferView":30,"componentType":5126,"count":100,"max":[1,1],"min":[0,0],"type":"VEC2"},{"bufferView":31,"componentType":5123,"count":192,"max":[99],"min":[0],"type":"SCALAR"},{"bufferView":32,"componentType":5126,"count":100,"max":[0.07999999821186066,0.22499999403953552,0.07999999821186066],"min":[-0.07999999821186066,-0.22499999403953552,-0.07999999821186066],"type":"VEC3"},{"bufferView":33,"componentType":5126,"count":100,"max":[1,1,1],"min":[-1,-1,-1],"type":"VEC3"},{"bufferView":34,"componentType":5126,"count":100,"max":[1,1],"min":[0,0],"type":"VEC2"},{"bufferView":35,"componentType":5123,"count":192,"max":[99],"min":[0],"type":"SCALAR"},{"bufferView":36,"componentType":5126,"count":100,"max":[0.10999999940395355,0.2750000059604645,0.10999999940395355],"min":[-0.10999999940395355,-0.2750000059604645,-0.10999999940395355],"type":"VEC3"},{"bufferView":37,"componentType":5126,"count":100,"max":[1,1,1],"min":[-1,-1,-1],"type":"VEC3"},{"bufferView":38,"componentType":5126,"count":100,"max":[1,1],"min":[0,0],"type":"VEC2"},{"bufferView":39,"componentType":5123,"count":192,"max":[99],"min":[0],"type":"SCALAR"},{"bufferView":40,"componentType":5126,"count":100,"max":[0.09000000357627869,0.2750000059604645,0.09000000357627869],"min":[-0.09000000357627869,-0.2750000059604645,-0.09000000357627869],"type":"VEC3"},{"bufferView":41,"componentType":5126,"count":100,"max":[1,1,1],"min":[-1,-1,-1],"type":"VEC3"},{"bufferView":42,"componentType":5126,"count":100,"max":[1,1],"min":[0,0],"type":"VEC2"},{"bufferView":43,"componentType":5123,"count":192,"max":[99],"min":[0],"type":"SCALAR"},{"bufferView":44,"componentType":5126,"count":100,"max":[0.10999999940395355,0.2750000059604645,0.10999999940395355],"min":[-0.10999999940395355,-0.2750000059604645,-0.10999999940395355],"type":"VEC3"},{"bufferView":45,"componentType":5126,"count":100,"max":[1,1,1],"min":[-1,-1,-1],"type":"VEC3"},{"bufferView":46,"componentType":5126,"count":100,"max":[1,1],"min":[0,0],"type":"VEC2"},{"bufferView":47,"componentType":5123,"count":192,"max":[99],"min":[0],"type":"SCALAR"},{"bufferView":48,"componentType":5126,"count":100,"max":[0.09000000357627869,0.2750000059604645,0.09000000357627869],"min":[-0.09000000357627869,-0.2750000059604645,-0.09000000357627869],"type":"VEC3"},{"bufferView":49,"componentType":5126,"count":100,"max":[1,1,1],"min":[-1,-1,-1],"type":"VEC3"},{"bufferView":50,"componentType":5126,"count":100,"max":[1,1],"min":[0,0],"type":"VEC2"},{"bufferView":51,"componentType":5123,"count":192,"max":[99],"min":[0],"type":"SCALAR"},{"bufferView":52,"componentType":5126,"count":100,"max":[0.09000000357627869,0.15000000596046448,0.09000000357627869],"min":[-0.09000000357627869,-0.15000000596046448,-0.09000000357627869],"type":"VEC3"},{"bufferView":53,"componentType":5126,"count":100,"max":[1,1,1],"min":[-1,-1,-1],"type":"VEC3"},{"bufferView":54,"componentType":5126,"count":100,"max":[1,1],"min":[0,0],"type":"VEC2"},{"bufferView":55,"componentType":5123,"count":192,"max":[99],"min":[0],"type":"SCALAR"},{"bufferView":56,"componentType":5126,"count":100,"max":[0.09000000357627869,0.15000000596046448,0.09000000357627869],"min":[-0.09000000357627869,-0.15000000596046448,-0.09000000357627869],"type":"VEC3"},{"bufferView":57,"componentType":5126,"count":100,"max":[1,1,1],"min":[-1,-1,-1],"type":"VEC3"},{"bufferView":58,"componentType":5126,"count":100,"max":[1,1],"min":[0,0],"type":"VEC2"},{"bufferView":59,"componentType":5123,"count":192,"max":[99],"min":[0],"type":"SCALAR"},{"bufferView":60,"componentType":5126,"count":24,"max":[0.10999999940395355,0.05000000074505806,0.25],"min":[-0.10999999940395355,-0.05000000074505806,-0.25],"type":"VEC3"},{"bufferView":61,"componentType":5126,"count":24,"max":[1,1,1],"min":[-1,-1,-1],"type":"VEC3"},{"bufferView":62,"componentType":5126,"count":24,"max":[1,1],"min":[0,0],"type":"VEC2"},{"bufferView":63,"componentType":5123,"count":36,"max":[23],"min":[0],"type":"SCALAR"},{"bufferView":64,"componentType":5126,"count":24,"max":[0.10999999940395355,0.05000000074505806,0.25],"min":[-0.10999999940395355,-0.05000000074505806,-0.25],"type":"VEC3"},{"bufferView":65,"componentType":5126,"count":24,"max":[1,1,1],"min":[-1,-1,-1],"type":"VEC3"},{"bufferView":66,"componentType":5126,"count":24,"max":[1,1],"min":[0,0],"type":"VEC2"},{"bufferView":67,"componentType":5123,"count":36,"max":[23],"min":[0],"type":"SCALAR"}],"materials":[{"pbrMetallicRoughness":{"metallicFactor":0,"roughnessFactor":1},"name":"Jersey"},{"pbrMetallicRoughness":{"baseColorFactor":[0.9046611743890203,0.5394794890033748,0.35640014413537763,1],"metallicFactor":0,"roughnessFactor":1},"name":"Skin"},{"pbrMetallicRoughness":{"baseColorFactor":[0.010329823026364548,0.004776953478513362,0.002428215868235294,1],"metallicFactor":0,"roughnessFactor":1},"name":"Hair"},{"pbrMetallicRoughness":{"baseColorFactor":[0.04666508633021928,0.02121901037134225,0.008568125615105716,1],"metallicFactor":0,"roughnessFactor":1},"name":"Eyes"},{"pbrMetallicRoughness":{"baseColorFactor":[0.8069522576650873,0.8069522576650873,0.8069522576650873,1],"metallicFactor":0,"roughnessFactor":1},"name":"Shorts"},{"pbrMetallicRoughness":{"baseColorFactor":[0.06847816983662762,0.2788942634659966,0.76052450467022,1],"metallicFactor":0,"roughnessFactor":1},"name":"Socks"},{"pbrMetallicRoughness":{"baseColorFactor":[0.0030352698352941175,0.0030352698352941175,0.0030352698352941175,1],"metallicFactor":0,"roughnessFactor":1},"name":"Shoes"}],"meshes":[{"primitives":[{"mode":4,"attributes":{"POSITION":0,"NORMAL":1,"TEXCOORD_0":2},"indices":3,"material":0}]},{"primitives":[{"mode":4,"attributes":{"POSITION":4,"NORMAL":5,"TEXCOORD_0":6},"indices":7,"material":1}]},{"primitives":[{"mode":4,"attributes":{"POSITION":8,"NORMAL":9,"TEXCOORD_0":10},"indices":11,"material":2}]},{"primitives":[{"mode":4,"attributes":{"POSITION":12,"NORMAL":13,"TEXCOORD_0":14},"indices":15,"material":3}]},{"primitives":[{"mode":4,"attributes":{"POSITION":16,"NORMAL":17,"TEXCOORD_0":18},"indices":19,"material":3}]},{"primitives":[{"mode":4,"attributes":{"POSITION":20,"NORMAL":21,"TEXCOORD_0":22},"indices":23,"material":0}]},{"primitives":[{"mode":4,"attributes":{"POSITION":24,"NORMAL":25,"TEXCOORD_0":26},"indices":27,"material":1}]},{"primitives":[{"mode":4,"attributes":{"POSITION":28,"NORMAL":29,"TEXCOORD_0":30},"indices":31,"material":0}]},{"primitives":[{"mode":4,"attributes":{"POSITION":32,"NORMAL":33,"TEXCOORD_0":34},"indices":35,"material":1}]},{"primitives":[{"mode":4,"attributes":{"POSITION":36,"NORMAL":37,"TEXCOORD_0":38},"indices":39,"material":4}]},{"primitives":[{"mode":4,"attributes":{"POSITION":40,"NORMAL":41,"TEXCOORD_0":42},"indices":43,"material":1}]},{"primitives":[{"mode":4,"attributes":{"POSITION":44,"NORMAL":45,"TEXCOORD_0":46},"indices":47,"material":4}]},{"primitives":[{"mode":4,"attributes":{"POSITION":48,"NORMAL":49,"TEXCOORD_0":50},"indices":51,"material":1}]},{"primitives":[{"mode":4,"attributes":{"POSITION":52,"NORMAL":53,"TEXCOORD_0":54},"indices":55,"material":5}]},{"primitives":[{"mode":4,"attributes":{"POSITION":56,"NORMAL":57,"TEXCOORD_0":58},"indices":59,"material":5}]},{"primitives":[{"mode":4,"attributes":{"POSITION":60,"NORMAL":61,"TEXCOORD_0":62},"indices":63,"material":6}]},{"primitives":[{"mode":4,"attributes":{"POSITION":64,"NORMAL":65,"TEXCOORD_0":66},"indices":67,"material":6}]}]}